<mxfile host="app.diagrams.net" modified="2021-12-24T12:05:33.988Z" agent="5.0 (Windows NT 10.0; Win64; x64) AppleWebKit/537.36 (KHTML, like Gecko) Chrome/96.0.4664.110 Safari/537.36" etag="c24YQNr6ycNfyFmQfihf" version="16.0.3" type="github">
  <diagram id="fwktXd9fh1U-leJpyrz3" name="Page-1">
    <mxGraphModel dx="782" dy="402" grid="1" gridSize="10" guides="1" tooltips="1" connect="1" arrows="1" fold="1" page="1" pageScale="1" pageWidth="850" pageHeight="1100" math="1" shadow="0">
      <root>
        <mxCell id="0" />
        <mxCell id="1" parent="0" />
        <mxCell id="ZRBFm-E4YwIKLhz83vzm-7" value="&lt;font style=&quot;font-size: 22px&quot;&gt;T = a.n&lt;sup&gt;2&lt;/sup&gt; + bn+c&lt;/font&gt;" style="text;html=1;align=center;verticalAlign=middle;resizable=0;points=[];autosize=1;strokeColor=none;fillColor=none;" vertex="1" parent="1">
          <mxGeometry x="95" y="360" width="170" height="30" as="geometry" />
        </mxCell>
        <mxCell id="ZRBFm-E4YwIKLhz83vzm-8" value="" style="edgeStyle=elbowEdgeStyle;elbow=vertical;endArrow=classic;html=1;rounded=0;fontSize=22;strokeColor=#FF0000;strokeWidth=3;" edge="1" parent="1" source="ZRBFm-E4YwIKLhz83vzm-7">
          <mxGeometry width="50" height="50" relative="1" as="geometry">
            <mxPoint x="170" y="360" as="sourcePoint" />
            <mxPoint x="220" y="300" as="targetPoint" />
          </mxGeometry>
        </mxCell>
        <mxCell id="ZRBFm-E4YwIKLhz83vzm-9" value="O(n&lt;sup&gt;2&lt;/sup&gt;)" style="text;html=1;align=center;verticalAlign=middle;resizable=0;points=[];autosize=1;strokeColor=none;fillColor=none;fontSize=22;" vertex="1" parent="1">
          <mxGeometry x="225" y="285" width="70" height="40" as="geometry" />
        </mxCell>
        <mxCell id="ZRBFm-E4YwIKLhz83vzm-15" value="&lt;font style=&quot;font-size: 22px&quot;&gt;T = a.n+ b&lt;/font&gt;" style="text;html=1;align=center;verticalAlign=middle;resizable=0;points=[];autosize=1;strokeColor=none;fillColor=none;" vertex="1" parent="1">
          <mxGeometry x="95" y="220" width="120" height="20" as="geometry" />
        </mxCell>
        <mxCell id="ZRBFm-E4YwIKLhz83vzm-16" value="" style="edgeStyle=elbowEdgeStyle;elbow=vertical;endArrow=classic;html=1;rounded=0;fontSize=22;strokeColor=#FF0000;strokeWidth=3;" edge="1" parent="1">
          <mxGeometry width="50" height="50" relative="1" as="geometry">
            <mxPoint x="165" y="220" as="sourcePoint" />
            <mxPoint x="215" y="160" as="targetPoint" />
          </mxGeometry>
        </mxCell>
        <mxCell id="ZRBFm-E4YwIKLhz83vzm-17" value="O(n)" style="text;html=1;align=center;verticalAlign=middle;resizable=0;points=[];autosize=1;strokeColor=none;fillColor=none;fontSize=22;" vertex="1" parent="1">
          <mxGeometry x="200" y="130" width="60" height="30" as="geometry" />
        </mxCell>
        <mxCell id="ZRBFm-E4YwIKLhz83vzm-18" value="given_array=[1,4,3,2,...........10]" style="text;html=1;align=center;verticalAlign=middle;resizable=0;points=[];autosize=1;strokeColor=none;fillColor=none;fontSize=22;" vertex="1" parent="1">
          <mxGeometry x="40" y="480" width="320" height="30" as="geometry" />
        </mxCell>
        <mxCell id="ZRBFm-E4YwIKLhz83vzm-19" value="function stupid(given_array)" style="text;html=1;align=center;verticalAlign=middle;resizable=0;points=[];autosize=1;strokeColor=none;fillColor=none;fontSize=22;" vertex="1" parent="1">
          <mxGeometry x="35" y="535" width="290" height="30" as="geometry" />
        </mxCell>
        <mxCell id="ZRBFm-E4YwIKLhz83vzm-20" value="{&lt;br&gt;&amp;nbsp; &amp;nbsp; &amp;nbsp; &amp;nbsp; &amp;nbsp; &amp;nbsp; &amp;nbsp; &amp;nbsp; &amp;nbsp; &amp;nbsp; &amp;nbsp; let total = 0;&lt;br&gt;&amp;nbsp; &amp;nbsp; &amp;nbsp; &amp;nbsp; &amp;nbsp; &amp;nbsp; &amp;nbsp; &amp;nbsp; &amp;nbsp; &amp;nbsp; &amp;nbsp; return total;&lt;br&gt;}" style="text;html=1;align=center;verticalAlign=middle;resizable=0;points=[];autosize=1;strokeColor=none;fillColor=none;fontSize=22;" vertex="1" parent="1">
          <mxGeometry x="195" y="555" width="260" height="110" as="geometry" />
        </mxCell>
        <mxCell id="ZRBFm-E4YwIKLhz83vzm-21" value="" style="shape=singleArrow;whiteSpace=wrap;html=1;fontSize=22;fillColor=#FF8000;" vertex="1" parent="1">
          <mxGeometry x="455" y="570" width="65" height="20" as="geometry" />
        </mxCell>
        <mxCell id="ZRBFm-E4YwIKLhz83vzm-22" value="" style="shape=singleArrow;whiteSpace=wrap;html=1;fontSize=22;fillColor=#FF8000;" vertex="1" parent="1">
          <mxGeometry x="455" y="600" width="65" height="20" as="geometry" />
        </mxCell>
        <mxCell id="ZRBFm-E4YwIKLhz83vzm-23" value="O(1)" style="text;html=1;align=center;verticalAlign=middle;resizable=0;points=[];autosize=1;strokeColor=none;fillColor=none;fontSize=22;" vertex="1" parent="1">
          <mxGeometry x="510" y="565" width="60" height="30" as="geometry" />
        </mxCell>
        <mxCell id="ZRBFm-E4YwIKLhz83vzm-24" value="O(1)" style="text;html=1;align=center;verticalAlign=middle;resizable=0;points=[];autosize=1;strokeColor=none;fillColor=none;fontSize=22;" vertex="1" parent="1">
          <mxGeometry x="510" y="595" width="60" height="30" as="geometry" />
        </mxCell>
        <mxCell id="ZRBFm-E4YwIKLhz83vzm-25" value="T= O(1) +O(1)" style="text;html=1;align=center;verticalAlign=middle;resizable=0;points=[];autosize=1;strokeColor=none;fillColor=none;fontSize=22;" vertex="1" parent="1">
          <mxGeometry x="65" y="690" width="150" height="30" as="geometry" />
        </mxCell>
        <mxCell id="ZRBFm-E4YwIKLhz83vzm-26" value="" style="html=1;shadow=0;dashed=0;align=center;verticalAlign=middle;shape=mxgraph.arrows2.arrow;dy=0.6;dx=40;direction=south;notch=0;fontSize=22;fillColor=#FF8000;" vertex="1" parent="1">
          <mxGeometry x="120" y="720" width="15" height="80" as="geometry" />
        </mxCell>
        <mxCell id="ZRBFm-E4YwIKLhz83vzm-27" value="" style="html=1;shadow=0;dashed=0;align=center;verticalAlign=middle;shape=mxgraph.arrows2.arrow;dy=0.6;dx=40;direction=south;notch=0;fontSize=22;fillColor=#FF8000;" vertex="1" parent="1">
          <mxGeometry x="170" y="720" width="15" height="80" as="geometry" />
        </mxCell>
        <mxCell id="ZRBFm-E4YwIKLhz83vzm-28" value="C&lt;sub&gt;1&lt;/sub&gt;" style="text;html=1;align=center;verticalAlign=middle;resizable=0;points=[];autosize=1;strokeColor=none;fillColor=none;fontSize=22;" vertex="1" parent="1">
          <mxGeometry x="110" y="790" width="40" height="40" as="geometry" />
        </mxCell>
        <mxCell id="ZRBFm-E4YwIKLhz83vzm-29" value="C&lt;sub&gt;2&lt;/sub&gt;" style="text;html=1;align=center;verticalAlign=middle;resizable=0;points=[];autosize=1;strokeColor=none;fillColor=none;fontSize=22;" vertex="1" parent="1">
          <mxGeometry x="160" y="790" width="40" height="40" as="geometry" />
        </mxCell>
        <mxCell id="ZRBFm-E4YwIKLhz83vzm-30" value="=" style="text;html=1;align=center;verticalAlign=middle;resizable=0;points=[];autosize=1;strokeColor=none;fillColor=none;fontSize=22;" vertex="1" parent="1">
          <mxGeometry x="215" y="695" width="30" height="30" as="geometry" />
        </mxCell>
        <mxCell id="ZRBFm-E4YwIKLhz83vzm-31" value="C&lt;sub&gt;1&lt;/sub&gt;" style="text;html=1;align=center;verticalAlign=middle;resizable=0;points=[];autosize=1;strokeColor=none;fillColor=none;fontSize=22;" vertex="1" parent="1">
          <mxGeometry x="240" y="690" width="40" height="40" as="geometry" />
        </mxCell>
        <mxCell id="ZRBFm-E4YwIKLhz83vzm-32" value="C&lt;sub&gt;2&lt;/sub&gt;" style="text;html=1;align=center;verticalAlign=middle;resizable=0;points=[];autosize=1;strokeColor=none;fillColor=none;fontSize=22;" vertex="1" parent="1">
          <mxGeometry x="295" y="690" width="40" height="40" as="geometry" />
        </mxCell>
        <mxCell id="ZRBFm-E4YwIKLhz83vzm-33" value="C&lt;span style=&quot;font-size: 18.3333px&quot;&gt;3&lt;/span&gt;" style="text;html=1;align=center;verticalAlign=middle;resizable=0;points=[];autosize=1;strokeColor=none;fillColor=none;fontSize=22;" vertex="1" parent="1">
          <mxGeometry x="360" y="695" width="40" height="30" as="geometry" />
        </mxCell>
        <mxCell id="ZRBFm-E4YwIKLhz83vzm-34" value="+" style="text;html=1;align=center;verticalAlign=middle;resizable=0;points=[];autosize=1;strokeColor=none;fillColor=none;fontSize=22;" vertex="1" parent="1">
          <mxGeometry x="275" y="695" width="30" height="30" as="geometry" />
        </mxCell>
        <mxCell id="ZRBFm-E4YwIKLhz83vzm-38" value="=" style="text;html=1;align=center;verticalAlign=middle;resizable=0;points=[];autosize=1;strokeColor=none;fillColor=none;fontSize=22;" vertex="1" parent="1">
          <mxGeometry x="335" y="695" width="30" height="30" as="geometry" />
        </mxCell>
        <mxCell id="ZRBFm-E4YwIKLhz83vzm-39" value="= O(1)" style="text;html=1;align=center;verticalAlign=middle;resizable=0;points=[];autosize=1;strokeColor=none;fillColor=none;fontSize=22;" vertex="1" parent="1">
          <mxGeometry x="335" y="745" width="80" height="30" as="geometry" />
        </mxCell>
      </root>
    </mxGraphModel>
  </diagram>
</mxfile>
